<?xml version="1.0" encoding="UTF-8"?>
<svg width="30px" height="20px" viewBox="0 0 30 20" version="1.1" xmlns="http://www.w3.org/2000/svg" xmlns:xlink="http://www.w3.org/1999/xlink">
    <!-- Generator: Sketch 60 (88103) - https://sketch.com -->
    <title>Group 9</title>
    <desc>Created with Sketch.</desc>
    <g id="1920" stroke="none" stroke-width="1" fill="none" fill-rule="evenodd">
        <g id="d_home_product_game-fuel_1" transform="translate(-48.000000, -819.000000)" fill-rule="nonzero">
            <g id="Group" transform="translate(49.000000, 820.000000)">
                <g id="Group-9">
                    <rect id="Rectangle" stroke="#FFFFFF" fill-opacity="0.01" fill="#D8D8D8" stroke-linejoin="round" x="10" y="0" width="8" height="8" rx="1"></rect>
                    <rect id="Rectangle" stroke="#FFFFFF" fill-opacity="0.01" fill="#D8D8D8" stroke-linejoin="round" x="10" y="10" width="8" height="8" rx="1"></rect>
                    <rect id="Rectangle" stroke="#FFFFFF" fill-opacity="0.01" fill="#D8D8D8" stroke-linejoin="round" x="20" y="10" width="8" height="8" rx="1"></rect>
                    <rect id="Rectangle" stroke="#FFFFFF" fill-opacity="0.01" fill="#D8D8D8" stroke-linejoin="round" x="0" y="10" width="8" height="8" rx="1"></rect>
                    <g id="Path" transform="translate(12.000000, 3.000000)" fill="#FFFFFF">
                        <polygon points="3.055 0 2.63 1.155 2.175 0 1.565 0 1.11 1.15125 0.685 0 1.42108547e-13 0 0.795 1.875 1.41 1.875 1.87 0.73875 2.33 1.875 2.945 1.875 3.74 0"></polygon>
                    </g>
                    <g id="Path" transform="translate(13.000000, 13.000000)" fill="#FFFFFF">
                        <path d="M0.983571429,0.8775 C0.983571429,0.725625 1.15071429,0.646875 1.35642857,0.646875 C1.59428571,0.646875 1.77428571,0.75375 1.87071429,0.93375 L2.57785714,0.59625 C2.32714286,0.208125 1.87714286,3.55271368e-14 1.35642857,3.55271368e-14 C0.694285714,3.55271368e-14 0.135,0.320625 0.135,0.894375 C0.135,1.884375 1.79357143,1.659375 1.79357143,2.07 C1.79357143,2.233125 1.61357143,2.311875 1.35,2.311875 C1.02857143,2.311875 0.81,2.176875 0.72,1.94625 L0,2.300625 C0.231428571,2.73375 0.707142857,2.97 1.35,2.97 C2.03785714,2.97 2.64214286,2.6775 2.64214286,2.07 C2.64214286,1.035 0.983571429,1.29375 0.983571429,0.8775 Z"></path>
                    </g>
                    <g id="Shape" transform="translate(23.000000, 12.000000)" fill="#FFFFFF">
                        <path d="M2.03,1.77635684e-14 L2.03,1.41272727 C1.85,1.16181818 1.585,1.01454545 1.22,1.01454545 C0.55,1.01454545 -1.70530257e-13,1.64181818 -1.70530257e-13,2.45454545 C-1.70530257e-13,3.26727273 0.55,3.89454545 1.22,3.89454545 C1.585,3.89454545 1.85,3.74727273 2.03,3.49636364 L2.03,3.81818182 L2.675,3.81818182 L2.675,1.77635684e-14 L2.03,1.77635684e-14 Z M1.34,3.22363636 C0.94,3.22363636 0.645,2.91272727 0.645,2.45454545 C0.645,1.99636364 0.94,1.68545455 1.34,1.68545455 C1.735,1.68545455 2.03,1.99636364 2.03,2.45454545 C2.03,2.91272727 1.735,3.22363636 1.34,3.22363636 Z"></path>
                    </g>
                    <g id="Shape" transform="translate(3.000000, 13.000000)" fill="#FFFFFF">
                        <path d="M2.03,0.07875 L2.03,0.410625 C1.85,0.1575 1.58,3.55271368e-14 1.215,3.55271368e-14 C0.55,3.55271368e-14 -1.70530257e-13,0.646875 -1.70530257e-13,1.485 C-1.70530257e-13,2.323125 0.55,2.97 1.215,2.97 C1.58,2.97 1.85,2.8125 2.03,2.559375 L2.03,2.89125 L2.675,2.89125 L2.675,0.07875 L2.03,0.07875 Z M1.335,2.278125 C0.94,2.278125 0.645,1.9575 0.645,1.485 C0.645,1.0125 0.94,0.691875 1.335,0.691875 C1.735,0.691875 2.03,1.0125 2.03,1.485 C2.03,1.9575 1.735,2.278125 1.335,2.278125 Z"></path>
                    </g>
                </g>
            </g>
        </g>
    </g>
</svg>