<?xml version="1.0" encoding="UTF-8"?>
<svg width="114px" height="39px" viewBox="0 0 114 39" version="1.1" xmlns="http://www.w3.org/2000/svg" xmlns:xlink="http://www.w3.org/1999/xlink">
    <!-- Generator: Sketch 48.2 (47327) - http://www.bohemiancoding.com/sketch -->
    <title>Logo</title>
    <desc>Created with Sketch.</desc>
    <defs>
        <linearGradient x1="50%" y1="0%" x2="50%" y2="100%" id="linearGradient-1">
            <stop stop-color="#FFF0A2" offset="0%"></stop>
            <stop stop-color="#9E7E3A" offset="100%"></stop>
        </linearGradient>
        <linearGradient x1="7.02071278%" y1="25.7987149%" x2="92.7905879%" y2="50%" id="linearGradient-2">
            <stop stop-color="#DDDEDE" offset="0%"></stop>
            <stop stop-color="#FFFFFF" offset="32.5633769%"></stop>
            <stop stop-color="#B6B2B2" offset="100%"></stop>
        </linearGradient>
        <polygon id="path-3" points="0.277733092 0.163212623 96.0491142 0.163212623 96.0491142 23.158684 0.277733092 23.158684"></polygon>
    </defs>
    <g id="d_home" stroke="none" stroke-width="1" fill="none" fill-rule="evenodd" transform="translate(-50.000000, -50.000000)">
        <g id="Group-4" transform="translate(50.000000, -5.000000)">
            <g id="Head" transform="translate(0.000000, 55.500001)">
                <g id="Logo">
                    <g id="Page-1">
                        <path d="M43.8312208,32.3192294 L44.3742688,29.7749174 C44.4126947,29.5544064 44.3872658,29.3616098 44.2974171,29.1959253 C44.2064382,29.0302407 44.0374774,28.9470972 43.7922299,28.9470972 L41.8720663,28.9470972 L41.1730544,32.3192294 L43.8312208,32.3192294 Z M47.0906391,31.7396348 C47.0256542,32.0282271 46.9318499,32.2806701 46.8092261,32.4945538 C46.6854722,32.7084375 46.4566122,32.9253336 46.1203858,33.1458447 L47.187834,36.5384615 L44.0442584,36.5384615 L43.2881728,33.435642 L40.9984427,33.435642 L40.3977559,36.5384615 L37.4497002,36.5384615 L39.1952521,27.7692308 L45.6355417,27.7692308 C47.148843,27.7692308 47.7563109,28.5006527 47.4590755,29.9610866 L47.0906391,31.7396348 Z" id="Fill-9" fill="url(#linearGradient-1)"></path>
                        <path d="M50.2947969,27.7692308 L53.2472716,27.7692308 L52.0474703,34.0556034 C52.0210885,34.1248897 51.9975742,34.221288 51.9786481,34.3447982 C51.9580014,34.4695135 51.9580014,34.5918188 51.9786481,34.7068943 C51.9975742,34.8249822 52.0400146,34.9280078 52.1059692,35.0171762 C52.1713504,35.1069471 52.2763043,35.1509288 52.4214046,35.1509288 L53.8190699,35.1509288 C54.0421687,35.1509288 54.2320034,35.0485057 54.3902946,34.8418519 C54.5474387,34.6345956 54.6661571,34.3737177 54.7447292,34.0556034 L56.0638224,27.7692308 L59.0552965,27.7692308 L57.5790591,34.7171366 C57.5406333,34.9243929 57.4620613,35.1358666 57.3433429,35.3485453 C57.2246245,35.562429 57.0806713,35.754623 56.9097627,35.9281399 C56.7394276,36.0998494 56.5524605,36.2438443 56.3494348,36.3625347 C56.1452621,36.4794176 55.9256044,36.5384615 55.6893147,36.5384615 L50.5895855,36.5384615 C50.2879147,36.5384615 50.0286842,36.4794176 49.8130411,36.3625347 C49.5956775,36.2438443 49.4190337,36.0859921 49.2808157,35.8853632 C49.1431711,35.6865418 49.0508346,35.4557884 49.0055266,35.1943081 C48.9584981,34.9310203 48.9625127,34.6568877 49.0141294,34.3664879 L50.2947969,27.7692308 Z" id="Fill-11" fill="url(#linearGradient-1)"></path>
                        <path d="M61.9916735,32.9807626 C61.7209956,32.9807626 61.4565078,32.9428058 61.1998984,32.8668922 C60.9421635,32.791581 60.715942,32.6777105 60.523485,32.5252808 C60.3299024,32.3746585 60.1886547,32.1776445 60.0969281,31.9360463 C60.0074525,31.6950506 60.0012623,31.4082657 60.0789204,31.0774991 L60.3884274,29.464033 C60.4643973,28.9820416 60.7193185,28.5789763 61.1503773,28.2542346 C61.5819988,27.9306979 62.1453015,27.7692308 62.8414108,27.7692308 L69.1379081,27.7692308 L68.7721271,29.1543535 L63.8655975,29.1543535 C63.6596347,29.1543535 63.4795579,29.2025527 63.3242417,29.2995534 C63.1700509,29.3959517 63.0597539,29.5544064 62.9961643,29.7749174 L62.6675242,31.3058426 L66.5301712,31.3058426 C66.7890315,31.3058426 67.0462037,31.3431969 67.3045013,31.4191105 C67.5611107,31.4944217 67.7867695,31.6082922 67.9797893,31.7601194 C68.1733718,31.9125492 68.3174332,32.1083582 68.4147872,32.3499564 C68.5115785,32.5915546 68.5340881,32.8837619 68.482316,33.2289882 L68.1345427,34.8418519 C68.0962764,34.9948841 68.0113027,35.1665936 67.8835607,35.3587876 C67.7535678,35.5527892 67.5841831,35.7377533 67.3720301,35.9178976 C67.1587517,36.0962344 66.9083324,36.2444468 66.6185213,36.3625347 C66.3281475,36.4794176 66.0101994,36.5384615 65.6613007,36.5384615 L59.0552965,36.5384615 L59.4222029,34.9249954 L65.3714896,34.9249954 L65.6613007,33.6627804 C65.7265785,33.4844436 65.7091336,33.3253865 65.6134678,33.1874164 C65.5172393,33.0500489 65.3652995,32.9807626 65.1598994,32.9807626 L61.9916735,32.9807626 Z" id="Fill-13" fill="url(#linearGradient-1)"></path>
                        <polygon id="Fill-15" fill="url(#linearGradient-1)" points="80.6608927 27.7692308 78.9086198 36.5384615 75.8858608 36.5384615 76.611769 32.9807626 72.8648624 32.9807626 72.1999846 36.5384615 69.1379081 36.5384615 70.9113069 27.7692308 73.9522575 27.7692308 73.2474753 31.3058426 76.9339384 31.3058426 77.6387207 27.7692308"></polygon>
                        <path d="M62.1353244,8.44546229 L54.2843771,8.44546229 L51.1284458,25.5556306 L55.2552028,25.5556306 L58.1545203,10.1536088 L60.9928247,10.1536088 L58.0935072,25.5556306 L62.1718126,25.5556306 L64.7792244,11.6620542 C65.1686314,9.40060749 64.4292965,8.44546229 62.1353244,8.44546229 Z M70.2117809,23.8425984 L67.7060576,23.8285521 L68.6631255,18.7279302 C69.0519343,16.5837391 69.8558713,15.1705639 71.8376,15.1705639 L70.2117809,23.8425984 Z M66.85008,8.44546229 L66.539033,10.1536088 L72.7641613,10.1536088 L72.2150436,13.2108063 C68.7941241,13.2108063 65.8403734,13.7659386 64.8683514,18.8867139 L63.6618477,25.5153239 L63.5840859,25.5556306 L74.1973704,25.5556306 L77.4645609,8.44546229 L66.85008,8.44546229 Z M84.9613931,8.44546229 L81.7588048,25.5556306 L85.8759911,25.5556306 L89.0719996,8.44546229 L84.9613931,8.44546229 Z M108.319233,16.8219147 C107.891543,18.8079328 107.481798,19.4516176 105.421112,19.4516176 L107.159386,10.1536088 L109.590338,10.1536088 L108.319233,16.8219147 Z M103.446561,8.44546229 L100.260721,25.5556306 L110.625168,25.5556306 L110.939206,23.8480948 L104.604015,23.8480948 L105.03649,21.4608425 C107.09598,21.4608425 111.262815,20.8312039 112.118792,16.9800877 L113.789474,8.44546229 L103.446561,8.44546229 Z M47.5908837,16.8219147 C47.2002803,18.8079328 46.7331116,19.4015396 44.7507847,19.4015396 L46.4681234,10.1536088 L48.8386609,10.1536088 L47.5908837,16.8219147 Z M42.7696543,8.44546229 L39.5706549,25.5556306 L49.7963269,25.5556306 L50.1845376,23.8480948 L43.9241174,23.8480948 L44.3817155,21.4675602 C46.4430004,21.4675602 50.6391448,20.8977709 51.4173606,17.0478762 L53.0635174,8.44546229 L42.7696543,8.44546229 Z M80.2544137,2.18388699 L75.9194944,25.5556306 L80.0791507,25.5556306 L84.4254351,2.18388699 L80.2544137,2.18388699 Z M98.6941207,8.44546229 L90.6613305,8.44546229 L87.4659201,25.5556306 L91.735041,25.5556306 L94.5984684,10.1536088 L97.2662951,10.1536088 L94.4172237,25.5556306 L98.637893,25.5556306 L101.229154,11.7029716 C101.500124,9.75603876 100.601078,8.44546229 98.6941207,8.44546229 Z M90.2372298,2.13441975 L86.1134636,2.13441975 L85.4925658,5.58857657 L89.5983869,5.58857657 L90.2372298,2.13441975 Z M24.02548,23.8480948 L21.5006154,23.8480948 L23.3806556,13.8844157 C23.768268,11.7029716 24.5805794,10.1609373 26.5629062,10.1609373 L24.02548,23.8480948 Z M28.0655028,2.19854395 L26.930181,8.44546229 C23.4691843,8.44546229 20.0775751,8.91326358 19.1845111,14.0346496 L17.0293139,25.5556306 L27.9937227,25.5556306 L32.3561577,2.19854395 L28.0655028,2.19854395 Z M40.8818379,12.8132363 L41.6989346,8.44546229 L32.5559456,8.44546229 L29.3748913,25.5556306 L33.5339493,25.5556306 L36.3907969,10.1554409 L38.3174942,10.1554409 L37.8497272,12.8132363 L40.8818379,12.8132363 Z M12.96028,15.7085965 L5.20204863,15.7085965 C5.86242546,12.1817656 10.0005477,3.74241036 15.1423948,3.74241036 L12.96028,15.7085965 Z M18.1649348,0 C10.0280634,0 2.37211857,6.43318387 0.266569259,17.5388843 C0.213930526,17.9022548 -0.557705444,22.2431577 0.794751089,27.4683638 C1.6794407,30.8889317 3.47155029,34.6863057 6.97920403,38 C5.16615858,34.6979091 4.39870979,30.8492358 4.14030146,27.4683638 C3.85377927,23.724732 4.19234203,20.5545538 4.43220716,19.3429118 L12.2550407,19.3429118 L11.1065592,25.5354772 L15.6239196,25.5354772 L20.3404697,0.149012423 C19.7907538,0.109927197 18.7152488,0 18.1649348,0 Z" id="Fill-17" fill="url(#linearGradient-2)"></path>
                        <g id="Group-19" transform="translate(17.284477, 2.923077)">
                            <mask id="mask-4" fill="white">
                                <use xlink:href="#path-3"></use>
                            </mask>
                            <g id="Clip-18"></g>
                        </g>
                    </g>
                </g>
            </g>
        </g>
    </g>
</svg>